<svg xmlns="http://www.w3.org/2000/svg" xmlns:xlink="http://www.w3.org/1999/xlink" viewBox="0 0 77.19 77.15"><defs><style>.cls-1{fill:#a6d4f4;}.cls-2{fill:url(#linear-gradient);}.cls-3{fill:url(#linear-gradient-2);}.cls-4{fill:url(#linear-gradient-3);}.cls-5{fill:none;}</style><linearGradient id="linear-gradient" x1="38.54" y1="51.44" x2="38.61" y2="74.83" gradientUnits="userSpaceOnUse"><stop offset="0" stop-color="#1f70dd"/><stop offset="0.21" stop-color="#1d66d8"/><stop offset="0.47" stop-color="#1c5cd5"/><stop offset="0.76" stop-color="#1c57d2"/><stop offset="1" stop-color="#1c53d0"/></linearGradient><linearGradient id="linear-gradient-2" x1="38.54" y1="5.92" x2="38.61" y2="29.31" gradientUnits="userSpaceOnUse"><stop offset="0" stop-color="#22a8f4"/><stop offset="0.79" stop-color="#219ff1"/></linearGradient><linearGradient id="linear-gradient-3" x1="38.46" y1="-1.1" x2="38.72" y2="84.1" gradientUnits="userSpaceOnUse"><stop offset="0" stop-color="#20a7f3"/><stop offset="0.21" stop-color="#21a8f4"/><stop offset="0.47" stop-color="#1f86e6"/><stop offset="0.76" stop-color="#1c57d2"/><stop offset="1" stop-color="#1c53d0"/></linearGradient></defs><title>Asset 2</title><g id="Layer_2" data-name="Layer 2"><g id="Layer_1-2" data-name="Layer 1"><path class="cls-1" d="M75.86,42.77,43.51,75.12a6.92,6.92,0,0,1-9.8,0L1.37,42.77A4.56,4.56,0,0,1,.12,38.69,4.64,4.64,0,0,0,1.37,41L34.43,74.08a5.92,5.92,0,0,0,8.37,0l9.58-9.57.36-.37L75.86,41a4.56,4.56,0,0,0,1.25-2.33A4.56,4.56,0,0,1,75.86,42.77Z"/><path class="cls-1" d="M76,37.79c-.22-.44.19-.92-.15-1.28s-.84-.84-1.24-1.24l-2.75-2.75-3.77-3.77-4.24-4.24-4.19-4.19-3.6-3.6-2.49-2.49c-.21-.21-.72-.55-.84-.84a4.67,4.67,0,0,1,.31,2.53l0,.17a3.27,3.27,0,0,1,.08.7,4.66,4.66,0,0,1-1.38,3.51l-4.79,4.78a6.27,6.27,0,0,0-1.79,3.63,4,4,0,0,0-.06.7,6.35,6.35,0,0,0,1.85,4.67l2.8,2.8a4,4,0,0,1,1.07,2,2.88,2.88,0,0,1,.09.71,1,1,0,0,1,0,.17,4,4,0,0,1-1.17,2.84l-2.8,2.8A6.27,6.27,0,0,0,45.15,49a4,4,0,0,0-.06.7,6.35,6.35,0,0,0,1.85,4.67l4.79,4.78A4.55,4.55,0,0,1,53,61.61a3.27,3.27,0,0,1,.08.7,4.57,4.57,0,0,1-.36,2L75.87,41.18c.66-.66.39-1.7.56-2.56C76.49,38.29,76.17,38.08,76,37.79Zm-49.6,1.05a4,4,0,0,1,1.08-2l2.79-2.8a6.35,6.35,0,0,0,1.85-4.67,4,4,0,0,0-.06-.7,6.27,6.27,0,0,0-1.79-3.63L25.51,20.3a4.66,4.66,0,0,1-1.38-3.51,3.27,3.27,0,0,1,.08-.7L24.13,16a4.83,4.83,0,0,1,.17-2.53L1.38,36.51c-.2.38,9,1,0,1.44-.26.5-.81,1.58-.7,1.85s.15.8.45,1.1L24.48,64.28a4.62,4.62,0,0,1-.35-2,3.27,3.27,0,0,1,.08-.7,4.55,4.55,0,0,1,1.3-2.47l4.78-4.78a6.35,6.35,0,0,0,1.85-4.67,4,4,0,0,0-.06-.7,6.27,6.27,0,0,0-1.79-3.63l-2.79-2.8a4,4,0,0,1-1.18-2.84,1,1,0,0,1,0-.17A2.88,2.88,0,0,1,26.42,38.84ZM1.35,38c.07-.13.12-.22.13-.25S1.1,38,1.35,38Z"/><path class="cls-1" d="M47.74,21.3l-6.1,6.1a4.35,4.35,0,0,1-6.14,0l-6.1-6.1a4.35,4.35,0,0,1,0-6.14l6.1-6.1a4.35,4.35,0,0,1,6.14,0l6.1,6.1A4.35,4.35,0,0,1,47.74,21.3Z"/><path class="cls-1" d="M47.74,66.53l-6.1,6.1a4.35,4.35,0,0,1-6.14,0l-6.1-6.1a4.35,4.35,0,0,1,0-6.14l6.1-6.1a4.35,4.35,0,0,1,6.14,0l6.1,6.1A4.35,4.35,0,0,1,47.74,66.53Z"/><path class="cls-2" d="M41.64,53l6.1,6.1a4.35,4.35,0,0,1,0,6.14l-6.1,6.1a4.35,4.35,0,0,1-6.14,0l-6.1-6.1a4.35,4.35,0,0,1,0-6.14L35.5,53A4.35,4.35,0,0,1,41.64,53Z"/><path class="cls-3" d="M47.74,19.72l-6.1,6.1a4.35,4.35,0,0,1-6.14,0l-6.1-6.1a4.35,4.35,0,0,1,0-6.14l6.1-6.1a4.35,4.35,0,0,1,6.14,0l6.1,6.1A4.35,4.35,0,0,1,47.74,19.72Z"/><path class="cls-4" d="M75.82,34.79,42.76,1.73a5.92,5.92,0,0,0-8.37,0L1.33,34.79A4.55,4.55,0,0,0,.08,38.87h0a4.64,4.64,0,0,0,1.25,2.33L34.39,74.27a5.92,5.92,0,0,0,8.37,0l9.58-9.57.36-.37L75.82,41.21a4.56,4.56,0,0,0,1.25-2.33h0A4.55,4.55,0,0,0,75.82,34.79ZM53,16a.47.47,0,0,1,0,.17,4.63,4.63,0,0,1-1.3,2.46l-4.79,4.78a6.35,6.35,0,0,0-1.82,5.21,1,1,0,0,0,0,.17,6.21,6.21,0,0,0,1.79,3.62l2.8,2.8A4,4,0,0,1,50.86,38a4.25,4.25,0,0,1-.06.71.94.94,0,0,1,0,.16,4,4,0,0,1-1.07,2l-2.8,2.8a6.35,6.35,0,0,0-1.82,5.21,1,1,0,0,0,0,.17,6.21,6.21,0,0,0,1.79,3.62l4.79,4.78a4.69,4.69,0,0,1,1.33,4,.47.47,0,0,1,0,.17,4.63,4.63,0,0,1-1.3,2.46l-9.77,9.77a4.71,4.71,0,0,1-6.68,0L25.46,64.1a4.63,4.63,0,0,1-1.3-2.46.47.47,0,0,1,0-.17,4.69,4.69,0,0,1,1.33-4l4.78-4.78A6.21,6.21,0,0,0,32,49a1,1,0,0,0,0-.17,6.35,6.35,0,0,0-1.82-5.21l-2.79-2.8a3.9,3.9,0,0,1-1.08-2,.94.94,0,0,1,0-.16,4.25,4.25,0,0,1-.06-.71,4,4,0,0,1,1.18-2.84l2.79-2.8A6.21,6.21,0,0,0,32,28.74a1,1,0,0,0,0-.17,6.35,6.35,0,0,0-1.82-5.21l-4.78-4.78a4.63,4.63,0,0,1-1.3-2.46.47.47,0,0,1,0-.17,4.72,4.72,0,0,1,.29-2.49s0,0,0,0a4.58,4.58,0,0,1,1-1.54l9.77-9.77a4.71,4.71,0,0,1,6.68,0l9.77,9.77a4.57,4.57,0,0,1,1,1.52A4.67,4.67,0,0,1,53,16Z"/><path class="cls-1" d="M53,15.72a4.61,4.61,0,0,0-1.36-2.62L41.91,3.33a4.71,4.71,0,0,0-6.68,0L25.46,13.1a4.61,4.61,0,0,0-1.33,2.64,4.72,4.72,0,0,1,.29-2.49v0a4.58,4.58,0,0,1,1-1.54l9.77-9.77a4.71,4.71,0,0,1,6.68,0l9.77,9.77a4.83,4.83,0,0,1,1.36,4Z"/><path class="cls-5" d="M47.74,65.27l-6.1,6.1a4.35,4.35,0,0,1-6.14,0l-6.1-6.1a4.35,4.35,0,0,1,0-6.14L35.5,53a4.35,4.35,0,0,1,6.14,0l6.1,6.1A4.35,4.35,0,0,1,47.74,65.27Z"/><path class="cls-5" d="M47.75,19.74l-6.1,6.11a4.35,4.35,0,0,1-6.14,0l-6.1-6.1a4.33,4.33,0,0,1,0-6.13l6.1-6.11a4.35,4.35,0,0,1,6.14,0l6.1,6.09A4.36,4.36,0,0,1,47.75,19.74Z"/><line class="cls-5" x1="24.16" y1="16.15" x2="24.08" y2="16.02"/><path class="cls-1" d="M53,16.15,53,16Z"/></g></g></svg>