<svg xmlns="http://www.w3.org/2000/svg" xmlns:xlink="http://www.w3.org/1999/xlink" viewBox="0 0 77.14 76"><defs><style>.cls-1{fill:url(#linear-gradient);}.cls-2{fill:url(#linear-gradient-2);}.cls-3{fill:url(#linear-gradient-3);}</style><linearGradient id="linear-gradient" x1="38.53" y1="51.43" x2="38.61" y2="74.83" gradientUnits="userSpaceOnUse"><stop offset="0" stop-color="#1f70dd"/><stop offset="0.21" stop-color="#1d66d8"/><stop offset="0.47" stop-color="#1c5cd5"/><stop offset="0.76" stop-color="#1c57d2"/><stop offset="1" stop-color="#1c53d0"/></linearGradient><linearGradient id="linear-gradient-2" x1="38.53" y1="5.91" x2="38.61" y2="29.31" gradientUnits="userSpaceOnUse"><stop offset="0" stop-color="#22a8f4"/><stop offset="0.79" stop-color="#219ff1"/></linearGradient><linearGradient id="linear-gradient-3" x1="38.45" y1="-1.1" x2="38.71" y2="84.1" gradientUnits="userSpaceOnUse"><stop offset="0" stop-color="#20a7f3"/><stop offset="0.21" stop-color="#21a8f4"/><stop offset="0.47" stop-color="#1f86e6"/><stop offset="0.76" stop-color="#1c57d2"/><stop offset="1" stop-color="#1c53d0"/></linearGradient></defs><title>Asset 1</title><g id="Layer_2" data-name="Layer 2"><g id="Layer_1-2" data-name="Layer 1"><path class="cls-1" d="M41.64,53l6.1,6.1a4.35,4.35,0,0,1,0,6.14l-6.1,6.1a4.35,4.35,0,0,1-6.14,0l-6.1-6.1a4.35,4.35,0,0,1,0-6.14L35.5,53A4.35,4.35,0,0,1,41.64,53Z"/><path class="cls-2" d="M47.74,19.72l-6.1,6.1a4.35,4.35,0,0,1-6.14,0l-6.1-6.1a4.35,4.35,0,0,1,0-6.14l6.1-6.1a4.35,4.35,0,0,1,6.14,0l6.1,6.1A4.35,4.35,0,0,1,47.74,19.72Z"/><path class="cls-3" d="M75.82,34.79,42.76,1.73a5.92,5.92,0,0,0-8.37,0L1.33,34.79a4.54,4.54,0,0,0,0,6.42L34.39,74.27a5.92,5.92,0,0,0,8.37,0L75.82,41.21A4.54,4.54,0,0,0,75.82,34.79ZM46.89,32.36l2.8,2.8a4,4,0,0,1,0,5.68l-2.8,2.8a6.37,6.37,0,0,0,0,9l4.79,4.78a4.71,4.71,0,0,1,0,6.68l-9.77,9.77a4.71,4.71,0,0,1-6.68,0L25.46,64.1a4.71,4.71,0,0,1,0-6.68l4.78-4.78a6.37,6.37,0,0,0,0-9l-2.79-2.8a4,4,0,0,1,0-5.68l2.79-2.8a6.37,6.37,0,0,0,0-9l-4.78-4.78a4.71,4.71,0,0,1,0-6.68l9.77-9.77a4.71,4.71,0,0,1,6.68,0l9.77,9.77a4.71,4.71,0,0,1,0,6.68l-4.79,4.78A6.37,6.37,0,0,0,46.89,32.36Z"/></g></g></svg>